<svg width="14" height="40" viewBox="0 0 14 40" fill="none" xmlns="http://www.w3.org/2000/svg">
<path d="M11.0021 28.0076V4.0021C11.0021 1.7361 9.26604 0 7.00004 0C4.73405 0 2.99795 1.86858 2.99795 4.0021V28.0007C1.39432 29.2001 0.334534 31.201 0.334534 33.3346C0.334534 37.0647 3.26987 40.0001 7.00004 40.0001C10.7302 40.0001 13.6655 37.0647 13.6655 33.3346C13.6655 31.201 12.5988 29.207 11.0021 28.0076ZM7.00004 38.6753C4.06471 38.6753 1.66624 36.2769 1.66624 33.3415C1.66624 31.3405 2.733 29.6113 4.32966 28.6771V4.0021C4.32966 2.53792 5.52889 1.33868 6.99307 1.33868C8.45725 1.33868 9.65641 2.53792 9.65641 4.0021V28.67C11.26 29.6043 12.3199 31.3335 12.3199 33.3345C12.3338 36.2698 9.93531 38.6753 7.00004 38.6753Z" fill="black"/>
<path d="M8.33165 29.6044C8.33165 29.4719 8.33165 29.4719 8.33165 29.3395V22.6739C8.33165 21.8721 7.80175 21.3422 7.00001 21.3422C6.1982 21.3422 5.6683 21.8721 5.6683 22.6739V29.3395C5.6683 29.4718 5.6683 29.4718 5.6683 29.6044C4.06467 30.1413 3.00488 31.6055 3.00488 33.3346C3.00488 35.6006 4.74099 37.3367 7.00698 37.3367C9.27291 37.3367 11.009 35.6006 11.009 33.3346C11.0021 31.6055 9.93528 30.1413 8.33165 29.6044Z" fill="black"/>
</svg>
