<svg width="60" height="60" viewBox="0 0 60 60" fill="none" xmlns="http://www.w3.org/2000/svg">
<path d="M32.495 19.9975C40.4163 19.9975 44.91 25.24 45.5625 31.5725H45.7625C50.86 31.5725 54.9925 35.695 54.9925 40.7788C54.9925 45.8638 50.86 49.985 45.7625 49.985H19.225C14.1288 49.985 9.99627 45.8638 9.99627 40.7788C9.99627 35.695 14.1288 31.5725 19.2263 31.5725H19.4263C20.0838 25.1988 24.5725 19.9975 32.495 19.9975ZM9.46127 30.2388C9.73298 30.7096 9.81963 31.2648 9.70432 31.7961C9.589 32.3274 9.27999 32.7966 8.83752 33.1125L8.66002 33.2263L7.03627 34.1638C6.54957 34.4457 5.97297 34.5294 5.42622 34.3973C4.87947 34.2653 4.40458 33.9277 4.1002 33.4547C3.79581 32.9818 3.68531 32.4097 3.79166 31.8574C3.898 31.305 4.21301 30.8149 4.67127 30.4888L4.84877 30.375L6.47377 29.4375C6.97606 29.1476 7.57292 29.069 8.13314 29.219C8.69336 29.369 9.17108 29.7354 9.46127 30.2375V30.2388ZM27.1313 18.3138C22.38 19.8388 18.995 23.4263 17.6063 28.215L17.4888 28.64L17.3438 29.235L16.8288 29.3313C15.3319 29.6462 13.9122 30.2541 12.6513 31.12C11.5012 29.1503 11.07 26.8427 11.4312 24.5907C11.7925 22.3386 12.9238 20.2816 14.6323 18.7705C16.3407 17.2594 18.5205 16.3877 20.7998 16.3042C23.0791 16.2207 25.3168 16.9305 27.1313 18.3125V18.3138ZM6.88127 17.4738L7.04627 17.5425L8.74627 18.335C9.26108 18.5717 9.66395 18.999 9.87003 19.5269C10.0761 20.0547 10.0693 20.6419 9.85112 21.1648C9.63291 21.6878 9.22028 22.1056 8.70014 22.3304C8.17999 22.5552 7.59291 22.5694 7.06252 22.37L6.89752 22.3L5.19752 21.5075C4.68665 21.2683 4.28793 20.841 4.0846 20.3149C3.88128 19.7887 3.88908 19.2043 4.10637 18.6838C4.32366 18.1632 4.73364 17.7467 5.25071 17.5212C5.76778 17.2958 6.35196 17.2788 6.88127 17.4738ZM30.7688 10.2713C31.2186 10.5861 31.5336 11.0585 31.6513 11.5948C31.7689 12.1311 31.6806 12.6921 31.4038 13.1663L31.3063 13.3175L30.2313 14.8538C29.9086 15.3192 29.4179 15.6414 28.8625 15.7524C28.3071 15.8635 27.7303 15.7548 27.2534 15.4492C26.7765 15.1437 26.4367 14.665 26.3056 14.1141C26.1744 13.5631 26.262 12.9827 26.55 12.495L26.6475 12.345L27.7225 10.8075C27.8873 10.572 28.0968 10.3713 28.3391 10.2169C28.5815 10.0624 28.8519 9.95724 29.1349 9.90732C29.4179 9.85741 29.708 9.86375 29.9885 9.92598C30.2691 9.98821 30.5347 10.1051 30.77 10.27L30.7688 10.2713ZM17.905 9.74625L17.9863 9.94125L18.6275 11.7038C18.8216 12.2322 18.8045 12.8152 18.5797 13.3313C18.3549 13.8475 17.9397 14.2571 17.4206 14.4749C16.9015 14.6928 16.3184 14.7021 15.7925 14.501C15.2667 14.2998 14.8387 13.9037 14.5975 13.395L14.5163 13.2L13.875 11.4375C13.6826 10.9094 13.7009 10.3274 13.9261 9.81245C14.1513 9.29744 14.5661 8.88888 15.0844 8.67151C15.6028 8.45414 16.1849 8.44464 16.7101 8.64498C17.2353 8.84532 17.6631 9.24013 17.905 9.7475V9.74625Z" fill="black"/>
</svg>
